<svg xmlns="http://www.w3.org/2000/svg" xmlns:xlink="http://www.w3.org/1999/xlink" id="Layer_1" x="0" y="0" enable-background="new 0 0 102 108" version="1.1" viewBox="0 0 102 108" xml:space="preserve"><rect width="24" height="20" x="0" y="22" fill="#E6E6E6"/><rect width="24" height="20" x="26" y="22" fill="#E6E6E6"/><rect width="24" height="20" x="52" y="22" fill="#E6E6E6"/><rect width="24" height="20" x="78" y="22" fill="#E6E6E6"/><rect width="24" height="20" x="0" y="44" fill="#E6E6E6"/><rect width="24" height="20" x="26" y="44" fill="#E6E6E6"/><rect width="24" height="20" x="52" y="44" fill="#E6E6E6"/><rect width="24" height="20" x="78" y="44" fill="#E6E6E6"/><rect width="24" height="20" x="0" y="66" fill="#E6E6E6"/><rect width="24" height="20" x="26" y="66" fill="#E6E6E6"/><rect width="24" height="20" x="52" y="66" fill="#FF3B4E"/><rect width="102" height="20" x="0" y="0" fill="#FF3B4E"/><rect width="24" height="20" x="78" y="66" fill="#E6E6E6"/><rect width="24" height="20" x="0" y="88" fill="#E6E6E6"/><rect width="24" height="20" x="26" y="88" fill="#E6E6E6"/><rect width="24" height="20" x="52" y="88" fill="#E6E6E6"/><rect width="24" height="20" x="78" y="88" fill="#E6E6E6"/></svg>